<svg width="237" height="235" viewBox="0 0 237 235" fill="none" xmlns="http://www.w3.org/2000/svg">
<path d="M127.001 126C151.267 126 170.334 106.933 170.334 82.6666C170.334 58.3999 151.267 39.3333 127.001 39.3333C102.734 39.3333 83.6675 58.3999 83.6675 82.6666C83.6675 106.933 102.734 126 127.001 126ZM207.601 202.267C196.334 158.067 151.267 130.333 107.067 141.6C77.6008 149.4 54.2008 171.933 46.4008 202.267C45.5341 206.6 48.1341 211.8 53.3341 212.667C54.2008 212.667 55.0675 212.667 55.0675 212.667H198.934C204.134 212.667 207.601 209.2 207.601 204C207.601 203.133 207.601 202.267 207.601 202.267Z" fill="black"/>
</svg>
