<svg width="185" height="185" viewBox="0 0 185 185" fill="none" xmlns="http://www.w3.org/2000/svg">
<path d="M121.098 97.9729C121.8 97.2398 122.35 96.3754 122.717 95.4292C123.488 93.5525 123.488 91.4475 122.717 89.5708C122.35 88.6246 121.8 87.7602 121.098 87.0271L97.973 63.9021C96.5215 62.4506 94.5529 61.6351 92.5001 61.6351C90.4474 61.6351 88.4787 62.4506 87.0272 63.9021C85.5757 65.3536 84.7602 67.3222 84.7602 69.375C84.7602 71.4277 85.5757 73.3964 87.0272 74.8479L97.048 84.7917H69.3751C67.3307 84.7917 65.3701 85.6038 63.9245 87.0494C62.4789 88.495 61.6668 90.4556 61.6668 92.5C61.6668 94.5444 62.4789 96.505 63.9245 97.9506C65.3701 99.3962 67.3307 100.208 69.3751 100.208H97.048L87.0272 110.152C86.3047 110.869 85.7313 111.721 85.3399 112.661C84.9486 113.6 84.7471 114.607 84.7471 115.625C84.7471 116.643 84.9486 117.65 85.3399 118.589C85.7313 119.529 86.3047 120.381 87.0272 121.098C87.7438 121.82 88.5963 122.394 89.5357 122.785C90.475 123.177 91.4825 123.378 92.5001 123.378C93.5177 123.378 94.5252 123.177 95.4646 122.785C96.4039 122.394 97.2564 121.82 97.973 121.098L121.098 97.9729ZM169.583 92.5C169.583 77.2544 165.063 62.3511 156.593 49.6748C148.123 36.9985 136.084 27.1185 121.999 21.2843C107.913 15.45 92.4146 13.9235 77.4619 16.8978C62.5092 19.8721 48.7743 27.2135 37.994 37.9938C27.2137 48.7741 19.8722 62.5091 16.8979 77.4618C13.9236 92.4145 15.4501 107.913 21.2844 121.999C27.1187 136.084 36.9986 148.122 49.6749 156.592C62.3512 165.062 77.2545 169.583 92.5001 169.583C112.944 169.583 132.55 161.462 147.006 147.006C161.462 132.55 169.583 112.944 169.583 92.5ZM30.8334 92.5C30.8334 80.3035 34.4501 68.3809 41.2262 58.2398C48.0022 48.0988 57.6332 40.1948 68.9013 35.5274C80.1694 30.86 92.5685 29.6388 104.531 32.0182C116.493 34.3977 127.481 40.2708 136.105 48.8951C144.729 57.5193 150.602 68.5073 152.982 80.4694C155.361 92.4316 154.14 104.831 149.473 116.099C144.805 127.367 136.901 136.998 126.76 143.774C116.619 150.55 104.697 154.167 92.5001 154.167C76.1451 154.167 60.4599 147.67 48.8952 136.105C37.3305 124.54 30.8334 108.855 30.8334 92.5Z" fill="white" fill-opacity="0.95"/>
</svg>
