<svg width="103" height="82" viewBox="0 0 103 82" fill="none" xmlns="http://www.w3.org/2000/svg">
<path d="M53.867 0.42179C53.0283 0.0613204 52.1083 -0.0716156 51.201 0.0365487C50.2936 0.144713 49.4314 0.490104 48.7024 1.03747L24.0155 20.4314H5.16462C3.79488 20.4314 2.48124 20.9719 1.51268 21.9341C0.544128 22.8963 0 24.2013 0 25.562V56.346C0 57.7068 0.544128 59.0118 1.51268 59.974C2.48124 60.9362 3.79488 61.4767 5.16462 61.4767H24.0155L48.4441 80.8706C49.3528 81.5949 50.4813 81.9927 51.6462 81.9994C52.4176 82.012 53.1803 81.8358 53.867 81.4863C54.7459 81.0705 55.4885 80.4163 56.0094 79.5993C56.5303 78.7823 56.8081 77.8358 56.8108 76.8687V5.03939C56.8081 4.07233 56.5303 3.12573 56.0094 2.30874C55.4885 1.49175 54.7459 0.837624 53.867 0.42179ZM46.4816 66.1969L29.0252 52.3441C28.1165 51.6199 26.9881 51.2221 25.8231 51.2154H10.3292V30.6927H25.8231C26.9881 30.686 28.1165 30.2882 29.0252 29.564L46.4816 15.7112V66.1969ZM67.8631 0.370485C67.1849 0.276157 66.4946 0.315462 65.8317 0.486155C65.1687 0.656848 64.5461 0.955585 63.9994 1.36531C63.4527 1.77504 62.9925 2.28773 62.6453 2.87411C62.298 3.4605 62.0704 4.10909 61.9754 4.78286C61.8805 5.45662 61.9201 6.14237 62.0919 6.80095C62.2637 7.45953 62.5644 8.07804 62.9769 8.62117C63.8098 9.71806 65.0473 10.4413 66.417 10.6318C73.7312 11.7516 80.4005 15.4348 85.2186 21.0152C90.0366 26.5956 92.6851 33.7048 92.6851 41.0567C92.6851 48.4085 90.0366 55.5177 85.2186 61.0981C80.4005 66.6786 73.7312 70.3618 66.417 71.4815C65.0473 71.5768 63.7717 72.2087 62.871 73.2382C61.9702 74.2677 61.518 75.6106 61.6139 76.9713C61.7098 78.3321 62.3459 79.5992 63.3822 80.494C64.4186 81.3889 65.7703 81.8381 67.1401 81.7428H67.8631C77.6389 80.2737 86.5603 75.3707 93.0074 67.9242C99.4546 60.4777 103 50.9813 103 41.1593C103 31.3373 99.4546 21.8409 93.0074 14.3943C86.5603 6.94781 77.6389 2.04486 67.8631 0.575711V0.370485ZM65.4874 50.5484C64.1177 50.7661 62.8911 51.5155 62.0775 52.6316C61.2639 53.7477 60.93 55.1392 61.1491 56.5C61.3683 57.8607 62.1226 59.0792 63.2461 59.8874C64.3696 60.6957 65.7703 61.0274 67.1401 60.8097C67.7005 60.8035 68.2571 60.7171 68.7927 60.5532C72.8161 59.1359 76.2987 56.5153 78.7617 53.0516C81.2246 49.5879 82.547 45.4513 82.547 41.2106C82.547 36.9698 81.2246 32.8332 78.7617 29.3696C76.2987 25.9059 72.8161 23.2852 68.7927 21.868C67.4915 21.4325 66.0694 21.5285 64.8393 22.1346C63.6093 22.7408 62.672 23.8076 62.2337 25.1003C61.7954 26.393 61.8919 27.8057 62.5021 29.0277C63.1123 30.2497 64.1861 31.1808 65.4874 31.6162C67.4472 32.3547 69.1344 33.668 70.3251 35.3817C71.5157 37.0954 72.1534 39.1283 72.1534 41.2106C72.1534 43.2928 71.5157 45.3258 70.3251 47.0395C69.1344 48.7532 67.4472 50.0665 65.4874 50.8049V50.5484Z" fill="#001E3E"/>
</svg>
