<svg width="78" height="62" viewBox="0 0 78 62" fill="none" xmlns="http://www.w3.org/2000/svg">
<path d="M40.7925 0.318915C40.1573 0.0463642 39.4607 -0.0541484 38.7735 0.0276344C38.0864 0.109417 37.4335 0.370566 36.8814 0.784428L18.1865 15.4481H3.91107C2.87379 15.4481 1.87899 15.8568 1.14553 16.5843C0.412058 17.3118 0 18.2986 0 19.3274V42.6031C0 43.632 0.412058 44.6187 1.14553 45.3462C1.87899 46.0737 2.87379 46.4824 3.91107 46.4824H18.1865L36.6859 61.1461C37.374 61.6937 38.2285 61.9944 39.1107 61.9995C39.6949 62.0091 40.2725 61.8759 40.7925 61.6116C41.458 61.2972 42.0205 60.8026 42.4149 60.1849C42.8093 59.5671 43.0197 58.8514 43.0218 58.1202V3.81027C43.0197 3.07908 42.8093 2.36336 42.4149 1.74563C42.0205 1.12791 41.458 0.633325 40.7925 0.318915ZM35.1996 50.0513L21.9802 39.5773C21.2921 39.0297 20.4376 38.7289 19.5554 38.7238H7.82214V23.2067H19.5554C20.4376 23.2016 21.2921 22.9008 21.9802 22.3532L35.1996 11.8792V50.0513ZM51.3915 0.280123C50.8779 0.208802 50.3551 0.23852 49.8531 0.367581C49.3511 0.496641 48.8796 0.722516 48.4656 1.03231C48.0516 1.3421 47.7031 1.72975 47.4401 2.17311C47.1771 2.61647 47.0048 3.10687 46.9329 3.61631C46.861 4.12574 46.8909 4.64424 47.021 5.14218C47.1512 5.64013 47.3789 6.10779 47.6912 6.51844C48.322 7.3478 49.2591 7.89465 50.2964 8.03869C55.8353 8.88532 60.8858 11.6702 64.5344 15.8895C68.183 20.1089 70.1887 25.4841 70.1887 31.0428C70.1887 36.6016 68.183 41.9768 64.5344 46.1961C60.8858 50.4155 55.8353 53.2004 50.2964 54.047C49.2591 54.119 48.2932 54.5968 47.611 55.3752C46.9289 56.1537 46.5865 57.169 46.6591 58.1978C46.7317 59.2267 47.2134 60.1848 47.9982 60.8614C48.783 61.5379 49.8067 61.8776 50.8439 61.8056H51.3915C58.7945 60.6947 65.5505 56.9876 70.4328 51.3573C75.3151 45.727 78 38.5468 78 31.1204C78 23.694 75.3151 16.5138 70.4328 10.8835C65.5505 5.25322 58.7945 1.54612 51.3915 0.435294V0.280123ZM49.5924 38.2195C48.5551 38.3841 47.6262 38.9507 47.0101 39.7946C46.394 40.6385 46.1411 41.6906 46.3071 42.7195C46.4731 43.7483 47.0443 44.6696 47.8951 45.2808C48.7459 45.8919 49.8067 46.1427 50.8439 45.9781C51.2683 45.9734 51.6899 45.908 52.0955 45.7841C55.1423 44.7125 57.7796 42.731 59.6448 40.1122C61.5099 37.4933 62.5114 34.3656 62.5114 31.1592C62.5114 27.9528 61.5099 24.8251 59.6448 22.2063C57.7796 19.5874 55.1423 17.6059 52.0955 16.5343C51.1101 16.2051 50.0331 16.2776 49.1016 16.7359C48.1701 17.1943 47.4604 18.0009 47.1284 18.9783C46.7965 19.9557 46.8696 21.0238 47.3317 21.9478C47.7938 22.8717 48.607 23.5757 49.5924 23.905C51.0765 24.4633 52.3542 25.4563 53.2559 26.752C54.1575 28.0477 54.6404 29.5848 54.6404 31.1592C54.6404 32.7336 54.1575 34.2707 53.2559 35.5664C52.3542 36.8621 51.0765 37.8551 49.5924 38.4135V38.2195Z" fill="#D9D9D9"/>
</svg>
